<?xml version="1.0" encoding="utf-8"?>
<svg version="1.1" id="Слой_1" xmlns="http://www.w3.org/2000/svg" x="0px" y="0px"
	 viewBox="0 0 512 512" style="enable-background:new 0 0 512 512;" xml:space="preserve">
<style type="text/css">
</style>
<g transform="translate(0.000000,5556.000000) scale(0.100000,-0.100000)" fill="#4186ff">
	<path class="st0" d="M2628,55203.8c-0.4-0.3-10.1-0.7-21.7-0.8c-123.7-1.5-260.4-35.4-378.6-94
		c-234.9-116.2-410.5-328.9-479.3-580.6c-14.7-53.8-26.4-121.4-29.4-169.7c-0.5-7.1-1.2-14.7-1.6-17c-0.4-2.2-1.1-56.7-1.4-120.8
		l-0.7-116.9l-142.6-0.3l-142.7-0.4l-5.3-3.7c-2.9-2-6.8-6-8.7-8.9l-3.4-5l-0.4-114.1l-0.3-114.1H1320c-65.6,0-93-0.4-96.3-1.6
		c-7.2-2.4-11.8-6.1-15.8-13.1l-3.8-6.4v-260.5v-260.4l-62-0.4l-62-0.3l-6.8-3.4c-4.4-2.2-8.3-5.6-10.9-9.3l-4.1-6l-0.4-668.2
		c-0.3-478.1,0-669.8,1.1-673.5c1.9-6.7,8.9-14.4,15.7-17.4c5-2.3,10.5-2.6,69.7-2.6h64.4l0.7-3.1c0.4-1.6,1.9-8.4,3.3-15.3
		c6.4-29.3,15.3-54.1,29-82.1c33.4-67.4,88.7-121.2,153.1-148.9c26.3-11.3,57.3-19.2,82.4-21c6.3-0.5,13.6-1.1,16.2-1.4
		c2.6-0.3,112.9-0.5,245.2-0.5l240.4-0.1l-98.9-99c-54.5-54.6-99.8-100.7-100.8-102.6c-1.6-2.9-2-43.4-2.6-232.8l-0.7-229.2
		l-8.2-3.1c-29.3-11-52.3-35.8-62-66.7c-4.1-12.9-5.2-36-2.3-49.3c12-55.7,65.1-92.1,119.7-81.6c22.9,4.4,40,13.9,56.5,31.3
		c28.6,30.2,36.1,74.4,19.1,112.8c-9,20.3-27.2,39.2-47.7,49.3c-6.8,3.4-13.6,6.3-15,6.3c-2.2,0-2.3,11.7-2.3,219.7v219.6
		l112.8,112.8l112.8,112.8l103.1,0.3c56.7,0.1,103.1,0,103.1-0.3c0-0.3-57.7-58.4-128.2-129.2c-80.6-80.9-129.1-130.6-130.5-133.6
		c-1.8-4.1-2.2-11.4-2.6-41.3l-0.4-36.4l-5-1.6c-15.3-4.9-34.6-18.5-45.1-31.7c-8.7-10.9-14.2-20.8-18.7-34.2
		c-3.5-9.9-3.8-12.7-3.9-30.6c0-21.7,2.2-31.6,10.2-47.8c8.6-16.9,27.9-36.2,44.8-44.8c16.2-8,26.2-10.2,47.8-10.1
		c17.6,0,21,0.4,30.6,3.7c26.4,8.7,49.6,28.9,61.3,53.3c7.8,16.2,9.5,24.9,9.5,46.4c-0.1,17.2-0.5,20.2-3.9,30
		c-9.3,26.8-25.7,46.6-49.8,59.7c-4.9,2.6-11.2,5.4-13.9,6.4l-5.2,1.6v27.4v27.5l33.1,33.1l33,33l68.4-68.5l68.5-68.4l0.3-103.1
		l0.4-103l4.1-5.9c12.1-17.2,38.7-15.4,48.8,3.3l3,5.7l0.4,106.9c0.1,73.8-0.1,109.2-1.2,114.4l-1.5,7.5l-75.5,75.6l-75.5,75.6
		l89.6,89.6l89.5,89.5h126h126l-79.3-79.3c-43.4-43.7-80.2-81.6-81.6-84.2c-2.5-4.6-2.6-12-2.6-179.1v-174.3l3.8-6.4
		c4.1-7.1,12-12.5,20.3-14c7.4-1.4,18.7,2.3,23.8,7.8c9.3,9.8,8.6-4.1,8.6,177.1v163.8l53.5,53.5c29.3,29.3,53.7,53.4,54.1,53.4
		c1.1,0,0-549.4-1.1-550.2c-0.5-0.5-3.9-2-7.8-3.4c-18-6.7-38.3-23.6-49.3-41.1c-9.8-15.8-14.2-30.4-15-50.1
		c-0.8-18.7,1.8-32.4,9.1-48.2c25.9-55.2,93.7-75.9,146.4-44.8c11.7,6.9,28.5,23.6,35,34.5c11.4,19.8,15.4,36,14.4,59.8
		c-1.1,25.7-9.5,45.5-28.2,65.1c-12.5,13.2-26.4,22.2-42.8,27.5c-2.2,0.7-2.3,15.8-1.8,310.3c0.4,170.2,0.8,312.6,1.1,316.1l0.4,6.5
		l128-0.1h128l89.5-89.6l89.6-89.5l-74.1-74.2c-40.7-40.9-75.2-76.4-76.7-79c-2.3-4.5-2.5-10.5-2.5-115.8v-111l3.8-6.5
		c2-3.5,6.4-8.2,9.4-10.2c4.8-3,7.1-3.7,14.6-3.7c15.7,0,25.9,8.3,28.7,23.7c0.8,4.5,1.4,44.9,1.4,104.2v96.8l67.8,67.8l67.7,67.7
		l33.8-33.8l33.6-33.6v-26.3v-26.1l-3.7-1.6c-30.5-12.4-48.4-27.9-60.5-52.2c-22.1-44.5-9.8-98.2,29.1-127.8
		c11.7-8.9,20-13.2,33.6-17.6c8.7-2.6,13.1-3.1,29.3-3.1s20.6,0.5,29.3,3.1c33.9,10.6,58.8,35.5,69.5,69.1
		c4.6,14.6,5.3,38.8,1.5,53.8c-7.6,30.8-27.1,55-55.3,68.9c-6.8,3.3-13.1,6-13.9,6c-1.1,0-1.6,10.6-2,37.2l-0.4,37l-3.7,6.1
		c-2,3.7-55.2,57.3-131,132.7c-70.1,69.6-127.3,126.7-127.1,126.9c0.3,0.3,47,0.5,103.9,0.5h103.2l112.8-112.6l112.8-112.8V51217
		c0-195.9-0.3-219.7-2-219.7c-3.8,0-19.9-8-28.5-14.2c-17.6-12.5-31.2-30.9-38.5-51.9c-3.5-10.1-3.8-12.4-3.8-32
		c0.1-19.2,0.4-22.1,3.8-32c5.3-15.9,12.4-27.1,25.5-40.3c13.3-13.3,24-20.2,41.5-26.2c11.2-3.8,13.9-4.2,30-4.2
		c20.3-0.1,32.8,2.7,48.4,10.8c25.3,13.5,45.4,38.4,52.7,66.1c3.3,12.3,3.3,39.6-0.1,51.8c-8.9,32.1-33.1,59.1-63.5,70.4l-7.5,2.9
		l-0.7,229.2c-0.5,189.3-1,229.9-2.6,232.8c-1,1.9-46.3,47.9-100.8,102.6l-98.9,99h239.2c152.8,0,245.6,0.5,256.7,1.4
		c35.7,2.9,66.7,11.4,99.3,27.2c92.6,44.8,158,138.1,175.6,249.9c1.2,7.5,2.7,24.1,3.5,36.8c1,15.8,1.4,317.1,1.1,940.5l-0.4,917.4
		l-3.5,6.7c-2.5,4.8-5.3,8-10.1,10.9l-6.5,4.1l-101.3,0.4l-101.2,0.3v112.1c0,106.1-0.1,112.2-2.6,117.4c-1.4,3-4.2,7.1-6.4,9.1
		c-8.9,8.3-1.6,7.9-146.8,7.9h-132.7l-0.7,117.5c-0.7,120.8-1.1,133.2-7.1,180.1c-18.9,149.1-74.4,291.6-161,413.9
		c-48.8,68.8-110.2,134-176.1,186.9c-91.1,73-194.8,127.9-304.8,161.4c-73.8,22.3-154.5,36.2-225,38.7c-12.4,0.4-28.1,1.1-34.9,1.4
		C2634.1,55204.2,2628.2,55204.2,2628,55203.8z M2708.5,55143.2c142.6-12.7,276.5-59.7,398.4-139.5
		c91.8-60.3,178.6-146.7,241.3-240.7c41.8-62.4,77.4-135,100.5-205.1c21.5-65,33.8-124.4,41-197.9c1.8-18,2.3-45.9,2.9-139.2
		l0.7-116.9h-105c-99.2,0-105,0.1-105,2.5c0.7,31.2-1.5,240.7-2.6,252.2c-5.7,57.6-14.2,99.8-29.7,147.8
		c-46.3,143-140,264.5-267.4,346.9c-148.9,96.4-333.1,126.9-506.4,84c-111.5-27.5-212.9-83.9-295.7-164
		c-104.1-100.9-171.2-232.1-191.4-373.9c-5.7-40.3-6.3-54.8-6.3-178V54104h-105.6h-105.7l0.3,104.6c0.3,121.1,1.2,142.9,8.2,194.4
		c17.3,128,64.8,253.1,137.4,361.6c52.2,77.9,123.3,153,198.6,209.5c115.4,86.8,252,143.6,392.5,163.6
		C2572.7,55146.6,2647,55148.7,2708.5,55143.2z M2689.4,54896.7c164.4-17.4,305.5-94.4,407.9-222.7c62-77.5,104.6-174.1,120.4-273.1
		c6.4-39.6,6.9-51.6,6.9-176c0-64.7,0-118.4,0-119.2c0-1.4-119.3-1.8-591.8-1.8h-591.8l-0.3,102.6c-0.3,56.2,0,113.2,0.5,126.3
		c5.4,144.1,66.7,284.7,169.2,388.7c46.9,47.5,95.7,83.5,155.4,113.9c69.5,35.4,144.5,56.2,224.7,62.5
		C2609.9,54899.4,2670.9,54898.8,2689.4,54896.7z M1715.6,53952.2v-94.7h-123.3H1469v94.7v94.7h123.3h123.3V53952.2z M3493,53952.2
		v-94.7h-860.1h-860.1v94.7v94.7h860.1H3493V53952.2z M3781.7,53952.2v-94.7h-115.8h-115.8v94.7v94.7h115.8h115.8V53952.2z
		 M4003.7,52920.5v-879.2l-1021.8-0.7c-996.7-0.7-1022-0.7-1027.1-3.3c-21.4-10.6-20.8-41.3,1.1-51.3c5.3-2.4,35.5-2.6,1026.7-2.6
		h1021.1v-6c0-11.3-4.4-39.2-8.9-57.2c-26.7-106.1-106.6-184.8-201.6-198.3c-6.3-0.8-404.5-1.4-1161.2-1.4
		c-1029.7,0-1153.1,0.3-1163.8,2c-94.4,16.3-170.8,92.5-197.5,196.8c-1.8,7.1-3.3,13.3-3.3,13.9c0,0.5,65.1,1.2,144.8,1.4l144.8,0.4
		l5.7,3.7c3,2,7.1,6.4,9.1,9.7l3.4,6v669.7c0,618.8-0.1,670.1-2.2,674.5c-3.1,6.5-11.8,13.6-18.9,15.4c-4.2,1.1-49.2,1.5-149,1.5
		H1262l-0.1,83.5c0,45.8-0.1,85.4-0.3,87.8l-0.3,4.4h924c727.2,0,925.1,0.4,929.6,1.6c10.5,3.1,19.9,16.1,19.9,27.1
		c0,10.5-7.2,21.5-17,25.9c-5.3,2.4-38.7,2.6-930.9,2.6h-925.5l-0.1,126v126l1371.3-0.3l1371.3-0.4V52920.5z M1518.1,53153.4v-103.5
		h-201.6h-201.6v103.5v103.5h201.6h201.6V53153.4z M1518.1,52889.1v-103.5h-201.6h-201.6v103.5v103.5h201.6h201.6V52889.1z
		 M1518.1,52624.9v-103.5h-201.6h-201.6v103.5v103.5h201.6h201.6V52624.9z M1518.1,52359.3v-103.5h-201.6h-201.6v103.5v103.5h201.6
		h201.6V52359.3z M1518.1,52095.1v-103.5h-201.6h-201.6v103.5v103.5h201.6h201.6V52095.1z M2049.8,51265.5
		c9.9-3.7,20.2-13.1,24.9-22.7c3.3-6.8,3.8-9.4,3.8-20c0-10.6-0.5-13.2-3.8-19.9c-13.9-28.5-50.8-34.6-73.3-12.3
		c-10.2,10.4-14,19.9-13.2,34.2c1,15.9,8.4,29.1,21.1,36.9C2021.2,51269,2036.7,51270.5,2049.8,51265.5z M3248.8,51265.4
		c10.8-4,22.1-15.3,26-26c6.5-17.4,2.7-35.5-10.5-48.8c-22.1-22.1-57.9-16.5-73,11.2c-5.6,10.2-6.4,25.6-2,37.2
		c4.8,12.4,15.7,23,28.5,27.5C3225.5,51269.3,3239.8,51268.8,3248.8,51265.4z M2651,50971.4c15.8-8.4,24.9-23.2,24.9-40.2
		c0-19.9-11.4-36.4-30.4-43.6c-9-3.3-26.6-2.4-35.4,1.9c-8.2,4-16.6,12.4-21.2,21.2c-3.3,6-3.7,8.4-3.7,19.7c0,10.6,0.5,14,3.1,19.2
		c8.9,18.1,24.2,27.4,43.9,26.7C2640.8,50976.1,2643.9,50975.3,2651,50971.4z M1824.5,50940.7c28.3-12.8,35.1-51.3,12.9-73.6
		c-9.9-9.9-17.7-13.2-32-13.3c-9.8-0.1-12.8,0.4-19.2,3.4c-9.8,4.6-18.3,13.1-22.9,22.9c-4.8,10.2-5,27.4-0.5,37.2
		c3.3,7.2,12.3,17.4,18.8,21.5C1793.5,50946.1,1810.8,50946.9,1824.5,50940.7z M3477,50942c8.9-3,20.3-13.8,25.1-23.4
		c3.3-6.7,3.8-9.4,3.8-19.3c0-9.7-0.5-12.8-3.5-19.2c-12.1-25.9-44.3-34.7-67.4-18.8c-23.2,15.9-26.7,49.4-7.5,69.2
		C3441.1,50944.5,3458.1,50948.4,3477,50942z"/>
	<path class="st0" d="M2610.4,53082.4c-92.6-9.3-171.3-69.6-203.6-155.8c-23.4-62.5-20.3-129.3,8.9-189.6
		c17.2-35.7,43.3-67.4,73.5-89.1l12.1-8.7V52474c0.1-160.7,0.3-165.3,2.7-170.4c3.5-6.8,11-13.2,17.4-15c3.4-1,41.8-1.5,112.8-1.5
		c101.5,0,107.9,0.1,113,2.6c6.7,3,12.7,8.9,15.1,14.7c1.6,3.7,1.9,33.4,1.9,169.7v165.2l4.1,2.4c15.9,9.3,42.6,35,58,55.6
		c66.9,89.8,63.7,211.2-7.6,298.7C2769.3,53056.5,2688.2,53090.2,2610.4,53082.4z M2666.2,53023.2c49.8-8.7,97.7-41.7,124.4-85.9
		c44.7-74.2,32-168.5-30.6-228.7c-6.3-6-18.7-15.7-27.4-21.5c-16.9-11.2-21.7-15.9-24-24.7c-1.1-3.8-1.5-53-1.5-161.7v-156.4h-74.2
		h-74.2v156.4c0,176.1,0.5,166.2-9.9,175.2c-3.1,2.9-11.4,8.7-18.4,13.2c-24.8,16.2-46.4,40.3-60.6,67.8
		c-15.5,30-20.4,50.8-20.4,85.3c0,25.7,1.5,35.3,9.3,58.8c9.3,27.9,23.2,49.9,45.5,72.1
		C2546.4,53015.3,2605.9,53033.6,2666.2,53023.2z"/>
</g>
</svg>
