<?xml version="1.0" encoding="UTF-8" standalone="no"?>
<!DOCTYPE svg PUBLIC "-//W3C//DTD SVG 1.1//EN" "http://www.w3.org/Graphics/SVG/1.1/DTD/svg11.dtd">
<svg xmlns="http://www.w3.org/2000/svg" version="1.1" viewBox="0 0 386 386">
<g stroke-width="2.00" fill="none" stroke-linecap="butt">
<path stroke="#8febb0" vector-effect="non-scaling-stroke" d="
  M 286.56 193.71
  A 93.40 93.40 0.0 0 0 193.16 100.31
  A 93.40 93.40 0.0 0 0 99.76 193.71
  A 93.40 93.40 0.0 0 0 193.16 287.11
  A 93.40 93.40 0.0 0 0 286.56 193.71"
/>
<path stroke="#8febb0" vector-effect="non-scaling-stroke" d="
  M 255.56 167.44
  C 226.01 151.87 191.33 147.32 158.42 151.04
  Q 143.66 152.70 134.31 156.05
  C 126.71 158.77 127.36 170.27 135.36 172.18
  Q 137.70 172.73 142.03 171.59
  C 175.50 162.77 218.29 166.21 248.91 183.04
  C 258.68 188.41 267.14 173.54 255.56 167.44"
/>
<path stroke="#8febb0" vector-effect="non-scaling-stroke" d="
  M 245.81 200.69
  Q 237.25 194.59 225.55 190.40
  Q 184.85 175.83 143.16 186.53
  Q 138.87 187.63 137.20 189.17
  C 133.71 192.38 135.19 199.38 139.86 200.81
  Q 141.86 201.43 145.59 200.48
  C 177.55 192.39 208.19 196.24 237.27 211.57
  C 245.72 216.02 252.10 205.16 245.81 200.69"
/>
<path stroke="#8febb0" vector-effect="non-scaling-stroke" d="
  M 234.06 227.44
  C 207.97 211.03 174.96 209.16 145.01 216.52
  Q 142.17 217.22 141.13 217.92
  C 137.74 220.23 138.95 225.98 142.44 227.43
  Q 144.32 228.21 147.60 227.45
  C 174.37 221.17 202.93 222.27 227.16 236.15
  C 234.92 240.59 240.01 231.18 234.06 227.44"
/>
</g>
<path fill="#1ed760" d="
  M 0.00 0.00
  L 386.00 0.00
  L 386.00 386.00
  L 0.00 386.00
  L 0.00 0.00
  Z
  M 286.56 193.71
  A 93.40 93.40 0.0 0 0 193.16 100.31
  A 93.40 93.40 0.0 0 0 99.76 193.71
  A 93.40 93.40 0.0 0 0 193.16 287.11
  A 93.40 93.40 0.0 0 0 286.56 193.71
  Z"
/>
<path fill="#ffffff" d="
  M 286.56 193.71
  A 93.40 93.40 0.0 0 1 193.16 287.11
  A 93.40 93.40 0.0 0 1 99.76 193.71
  A 93.40 93.40 0.0 0 1 193.16 100.31
  A 93.40 93.40 0.0 0 1 286.56 193.71
  Z
  M 255.56 167.44
  C 226.01 151.87 191.33 147.32 158.42 151.04
  Q 143.66 152.70 134.31 156.05
  C 126.71 158.77 127.36 170.27 135.36 172.18
  Q 137.70 172.73 142.03 171.59
  C 175.50 162.77 218.29 166.21 248.91 183.04
  C 258.68 188.41 267.14 173.54 255.56 167.44
  Z
  M 245.81 200.69
  Q 237.25 194.59 225.55 190.40
  Q 184.85 175.83 143.16 186.53
  Q 138.87 187.63 137.20 189.17
  C 133.71 192.38 135.19 199.38 139.86 200.81
  Q 141.86 201.43 145.59 200.48
  C 177.55 192.39 208.19 196.24 237.27 211.57
  C 245.72 216.02 252.10 205.16 245.81 200.69
  Z
  M 234.06 227.44
  C 207.97 211.03 174.96 209.16 145.01 216.52
  Q 142.17 217.22 141.13 217.92
  C 137.74 220.23 138.95 225.98 142.44 227.43
  Q 144.32 228.21 147.60 227.45
  C 174.37 221.17 202.93 222.27 227.16 236.15
  C 234.92 240.59 240.01 231.18 234.06 227.44
  Z"
/>
<path fill="#1ed760" d="
  M 255.56 167.44
  C 267.14 173.54 258.68 188.41 248.91 183.04
  C 218.29 166.21 175.50 162.77 142.03 171.59
  Q 137.70 172.73 135.36 172.18
  C 127.36 170.27 126.71 158.77 134.31 156.05
  Q 143.66 152.70 158.42 151.04
  C 191.33 147.32 226.01 151.87 255.56 167.44
  Z"
/>
<path fill="#1ed760" d="
  M 245.81 200.69
  C 252.10 205.16 245.72 216.02 237.27 211.57
  C 208.19 196.24 177.55 192.39 145.59 200.48
  Q 141.86 201.43 139.86 200.81
  C 135.19 199.38 133.71 192.38 137.20 189.17
  Q 138.87 187.63 143.16 186.53
  Q 184.85 175.83 225.55 190.40
  Q 237.25 194.59 245.81 200.69
  Z"
/>
<path fill="#1ed760" d="
  M 234.06 227.44
  C 240.01 231.18 234.92 240.59 227.16 236.15
  C 202.93 222.27 174.37 221.17 147.60 227.45
  Q 144.32 228.21 142.44 227.43
  C 138.95 225.98 137.74 220.23 141.13 217.92
  Q 142.17 217.22 145.01 216.52
  C 174.96 209.16 207.97 211.03 234.06 227.44
  Z"
/>
</svg>
