<?xml version="1.0" standalone="no"?>
<!DOCTYPE svg PUBLIC "-//W3C//DTD SVG 20010904//EN"
 "http://www.w3.org/TR/2001/REC-SVG-20010904/DTD/svg10.dtd">
<svg version="1.0" xmlns="http://www.w3.org/2000/svg"
 width="512.000000pt" height="512.000000pt" viewBox="0 0 512.000000 512.000000"
 preserveAspectRatio="xMidYMid meet">
<metadata>
Created by potrace 1.14, written by Peter Selinger 2001-2017
</metadata>
<g transform="translate(0.000000,512.000000) scale(0.100000,-0.100000)"
fill="#000000" stroke="none">
<path d="M0 2560 l0 -2560 2560 0 2560 0 0 2560 0 2560 -2560 0 -2560 0 0
-2560z m2059 745 c123 -29 224 -96 281 -185 36 -56 70 -155 70 -204 0 -32 -1
-33 -52 -40 -29 -3 -96 -6 -149 -6 l-95 0 -17 54 c-36 113 -136 165 -295 153
-166 -13 -253 -104 -193 -203 27 -45 104 -78 299 -129 248 -65 304 -87 394
-152 113 -82 173 -250 148 -409 -15 -95 -53 -169 -124 -240 -109 -109 -227
-147 -456 -147 -165 -1 -245 15 -347 65 -90 44 -180 142 -220 239 -31 73 -59
186 -50 195 4 4 244 33 279 34 4 0 12 -19 19 -42 29 -108 93 -187 176 -218 75
-28 212 -28 287 0 92 35 158 132 140 207 -20 83 -73 112 -322 178 -314 82
-414 141 -486 282 -122 242 34 521 319 572 33 6 71 13 85 15 46 8 244 -4 309
-19z m1411 -15 c135 -22 244 -101 298 -218 38 -81 38 -202 0 -283 -29 -64 -84
-129 -134 -160 l-34 -20 69 -35 c80 -40 132 -93 170 -173 23 -49 26 -68 25
-156 0 -116 -20 -179 -82 -260 -51 -68 -111 -110 -190 -137 -64 -21 -86 -22
-514 -26 l-448 -4 0 741 0 741 388 0 c213 0 416 -5 452 -10z"/>
<path d="M2930 2885 l0 -177 218 4 c236 5 264 11 314 64 50 54 56 145 13 210
-34 52 -80 62 -322 70 l-223 7 0 -178z"/>
<path d="M2930 2270 l0 -200 223 0 c168 0 236 4 273 15 110 32 163 146 119
252 -45 107 -136 132 -492 133 l-123 0 0 -200z"/>
</g>
</svg>
